<svg width="232" height="40" viewBox="0 0 232 40" fill="none" xmlns="http://www.w3.org/2000/svg">
<path d="M3.72705 13.6221C5.42328 13.6221 7.4854 13.6221 9.18162 13.6221M13.6261 13.6221C14.1389 13.6221 14.4264 13.6221 14.9392 13.6221H16.1514H15.9493M16.1514 16.3698C15.9493 16.3698 13.222 16.3698 12.919 16.3698M11.3028 16.3698C8.77823 16.3698 6.25167 16.3698 3.72705 16.3698M11.7069 15.4253C11.7069 15.4253 14.1079 17.7803 15.6463 19.2893M16.1514 21.0925L18.2726 25.2999" stroke="#D77E2A" stroke-linecap="round" stroke-linejoin="round"/>
<path d="M15.1412 18.8604H3.62598M16.7574 22.4668H3.62598M15.7473 25.6438H11.2581M8.60857 25.6438H3.62598M15.7473 29.3361H3.62598M15.7473 33.1142H3.62598M15.7473 35.8619H3.62598" stroke="#D77E2A" stroke-linecap="round" stroke-linejoin="round"/>
<path d="M2.93183 8.81386L2.60287 8.56529C1.94409 8.06751 1 8.53744 1 9.36313V37.5237C1 38.076 1.44772 38.5237 2 38.5237H17.2728C17.8251 38.5237 18.2728 38.076 18.2728 37.5237V9.19823C18.2728 8.59818 17.5126 8.33888 17.1459 8.81386V8.81386M2.93183 8.81386L5.09093 10.4453M2.93183 8.81386L4.28916 7.13946M9.48489 5.46506H6.12315C5.82163 5.46506 5.5362 5.60112 5.34633 5.83534L4.28916 7.13946M9.48489 5.46506L10.2521 7.6389C10.3427 7.89582 10.3246 8.1786 10.202 8.42188L9.48489 9.84426M9.48489 5.46506L11.7874 4.18269C12.162 3.97404 12.628 4.02748 12.9457 4.31553L15.4445 6.58133M9.48489 9.84426L5.09093 10.4453M9.48489 9.84426L11.9091 11.5616M5.09093 10.4453L11.1195 15.0007C11.5569 15.3312 12.1789 15.2479 12.5139 14.8139L13.7652 13.1931M11.9091 11.5616L13.7652 13.1931M11.9091 11.5616C12.1064 10.7568 13.0203 8.81386 12.5152 9.93013M13.7652 13.1931L17.1459 8.81386M17.1459 8.81386L15.4445 6.58133M15.4445 6.58133H14.2023C13.9236 6.58133 13.6576 6.69759 13.4684 6.90208L12.4142 8.04106M4.28916 7.13946L3.58194 6.26705C3.2263 5.82832 3.30428 5.18232 3.75412 4.84083L4.06424 4.60541C4.21131 4.49376 4.3246 4.34358 4.39155 4.1715L4.84294 3.01128C4.99245 2.62698 5.36253 2.37387 5.77489 2.37387H6.67477C6.92309 2.37387 7.16253 2.28147 7.34649 2.11467L7.96213 1.55644C8.3181 1.23366 8.85333 1.20971 9.23672 1.49941L9.8218 1.94151C10.1638 2.19995 10.6325 2.21164 10.987 1.97057L11.9501 1.31561C12.2384 1.11959 12.6079 1.08781 12.9254 1.23175L14.8574 2.1077C15.2149 2.26977 15.4445 2.62597 15.4445 3.01847V3.8336" stroke="#D77E2A" stroke-linecap="round" stroke-linejoin="round"/>
<path d="M15.2835 3.54102L15.5773 3.66253C16.3253 3.97181 16.8131 4.70138 16.8131 5.51074V5.84599C16.8131 6.08446 16.8557 6.32101 16.939 6.54447L17.6087 8.34129M3.3254 6.08234L1.66455 8.34129" stroke="#D77E2A" stroke-linecap="round" stroke-linejoin="round"/>
<path d="M29.1418 29.2853L28.5942 29.8314C27.6706 30.7525 27.1514 32.0033 27.1514 33.3078V33.6408C27.1514 36.1684 29.2005 38.2175 31.7281 38.2175V38.2175C32.9398 38.2175 34.102 37.737 34.9599 36.8814L36.6058 35.2401M29.1418 29.2853L28.7252 28.9736C27.1402 27.7882 26.2493 26.5916 26.428 24.6204V24.6204C26.5589 23.1765 27.1681 21.0252 28.1976 20.0043L45.3742 2.97075C46.6273 1.72814 48.3864 1.13796 50.1353 1.37339V1.37339C51.2608 1.5249 52.3151 2.01001 53.1623 2.7662L54.5192 3.9774M29.1418 29.2853L54.5192 3.9774M54.5192 3.9774L56.1651 2.33605C57.023 1.48047 58.1852 1 59.3969 1V1C61.9245 1 63.9736 3.04906 63.9736 5.5767V5.90967C63.9736 7.21412 63.4544 8.46496 62.5308 9.38608L61.9832 9.93219M36.6058 35.2401L37.2791 35.9165C38.4143 37.057 39.9572 37.6982 41.5664 37.6982V37.6982C43.171 37.6982 44.7099 37.0606 45.8444 35.9257L62.6066 19.1585C63.4964 18.2685 64.0942 17.1092 64.3134 15.8699V15.8699C64.7117 13.6186 63.814 11.3015 61.9832 9.93219V9.93219M36.6058 35.2401L61.9832 9.93219" stroke="#D77E2A" stroke-linecap="round" stroke-linejoin="round"/>
<path d="M32.0049 31.3033C32.0049 31.3033 32.981 32.717 34.4766 32.2878C36.313 31.7609 37.2405 31.1065 37.9369 29.3343C38.5701 27.7232 37.7982 26.5152 38.4313 24.904C39.1277 23.1318 40.1119 22.1517 41.8917 21.4583C43.5097 20.8278 44.7227 21.5965 46.3407 20.966C48.1204 20.2726 49.8011 18.0736 49.8011 16.5357C49.8011 14.9979 49.8011 16.1046 49.8011 14.5667C49.8011 13.0288 51.7627 11.0261 53.7558 10.1365C55.5262 9.34618 57.2123 10.8853 58.6992 9.64421C59.5618 8.92412 60.2212 8.30319 60.1822 7.18294C60.1394 5.95277 59.4007 5.03332 58.2048 4.72168" stroke="#D77E2A" stroke-linecap="round" stroke-linejoin="round"/>
<path d="M77.5078 5.98685L82.2295 12.0336M83.1739 2.78561L90.7286 12.0336M91.3582 2.07422L99.2277 12.0336M99.2277 2.07422L107.412 12.0336M95.7651 2.07422L103.32 12.0336M86.6365 2.07422L94.8208 12.0336M80.3408 3.85269L86.6365 12.0336" stroke="#D77E2A" stroke-linecap="round" stroke-linejoin="round"/>
<path d="M110.56 11.8599L103.635 3.32324" stroke="#D77E2A" stroke-linecap="round" stroke-linejoin="round"/>
<path d="M86.2583 18.8232V21.2797M86.2583 26.8296L89.5336 26.2837M91.9901 27.4664L93.9007 28.5582" stroke="#D77E2A" stroke-linecap="round" stroke-linejoin="round"/>
<path d="M79.5602 21.9375L76.9023 26.8735" stroke="#D77E2A" stroke-linecap="round" stroke-linejoin="round"/>
<path d="M85.2557 22.1273C85.2557 22.1273 84.4014 24.4055 83.4521 24.3106M91.5205 22.1273C92.1426 23.3828 92.2513 24.2897 93.3241 25.1649M99.8737 21.4629C99.7723 23.854 99.9734 25.1664 101.772 27.3481M106.993 21.4629C106.489 22.9022 107.373 24.0258 108.227 24.2156" stroke="#D77E2A" stroke-linecap="round" stroke-linejoin="round"/>
<path d="M72.1562 24.1315L77.1927 21.6416" stroke="#D77E2A" stroke-linecap="round" stroke-linejoin="round"/>
<path d="M108.671 33.0234C108.671 33.0234 110.581 33.1227 111.189 34.0905C111.916 35.2472 110.383 37.0098 109.521 37.8625C109.185 38.1944 108.727 38.3588 108.254 38.3588H78.9458C78.4271 38.3588 77.9263 38.1599 77.5866 37.7679C76.8131 36.8753 75.5707 35.1727 76.2484 34.0905C76.8551 33.1217 78.7667 33.0234 78.7667 33.0234M108.671 33.0234H78.7667M108.671 33.0234H111.821C112.229 33.0234 112.631 32.9013 112.939 32.6335C113.468 32.1732 114.248 31.3646 114.337 30.5335C114.444 29.539 113.568 28.4476 112.973 27.8306C112.648 27.4935 112.192 27.3323 111.723 27.3323H75.7142C75.2458 27.3323 74.7894 27.4935 74.4643 27.8305C73.8691 28.4476 72.9939 29.539 73.1006 30.5335C73.1897 31.3646 73.9695 32.1732 74.4988 32.6335C74.8068 32.9013 75.2081 33.0234 75.6163 33.0234H78.7667M72.1562 24.131L76.541 27.7094C77.2682 28.3029 78.3269 28.2482 78.9891 27.5831L79.6082 26.9612C80.1381 26.429 81.0279 26.5409 81.4095 27.1877V27.1877C81.6993 27.679 82.3061 27.8827 82.8337 27.6659L87.6213 25.6987C88.3606 25.395 89.2097 25.5605 89.7807 26.1197L91.6987 27.998C92.6384 28.9182 94.1953 28.6965 94.8407 27.5505L94.8665 27.5045C95.375 26.6017 96.4888 26.2367 97.4329 26.6635L100.561 28.0774C101.408 28.4602 102.407 28.1286 102.857 27.3153V27.3153C103.299 26.5163 104.273 26.18 105.114 26.5363L107.741 27.6496C108.326 27.8974 108.993 27.8527 109.54 27.5292L111.976 26.0873L112.049 26.0443C113.427 25.2287 113.335 23.2052 111.889 22.5172L109.3 21.2855M109.3 21.2855C109.3 21.2855 110.56 20.3964 110.56 19.507C110.56 18.9934 110.14 18.4799 109.785 18.1377C109.487 17.8509 109.079 17.7285 108.665 17.7285H106.406C106.034 17.7285 105.662 17.8209 105.37 18.0499C104.81 18.4885 104.667 18.876 104.579 19.507M109.3 21.2855L105.838 21.3238M86.2145 19.507C86.1549 18.8614 85.8266 18.4812 85.2363 18.0575C84.924 17.8332 84.543 17.7285 84.1585 17.7285H77.4663C77.2848 17.7285 77.1037 17.7524 76.9327 17.8132C76.3656 18.0149 75.0622 18.5773 74.9893 19.507C74.9136 20.4723 76.2141 21.1987 76.8514 21.4951C77.0744 21.5987 77.3189 21.6398 77.5648 21.637L84.7475 21.5575M86.2145 19.507C86.0768 20.3362 85.6798 20.7921 84.7475 21.5575M86.2145 19.507C86.1986 18.6555 87.2626 18.083 87.8003 17.8484C87.9982 17.762 88.2133 17.7285 88.4293 17.7285H94.0268C94.3416 17.7285 94.6568 17.7981 94.9051 17.9918C95.2739 18.2794 95.7648 18.7959 95.7648 19.507M86.2145 19.507C86.4569 20.6937 86.7699 21.0479 87.8953 21.5226M84.7475 21.5575L87.8953 21.5226M95.7648 19.507C95.5714 21.0544 94.8427 21.4456 94.5057 21.4494M95.7648 19.507C95.7648 18.7959 96.2558 18.2794 96.6246 17.9918C96.8728 17.7981 97.1881 17.7285 97.5029 17.7285H101.565C102.407 17.7285 104.558 18.6646 104.579 19.507V19.507M95.7648 19.507C95.7648 20.6457 97.024 21.4215 97.024 21.4215M94.5057 21.4494L87.8953 21.5226M94.5057 21.4494L97.024 21.4215M104.579 19.507C104.756 20.3508 103.895 21.3486 103.634 21.3482M104.579 19.507C104.579 20.7338 105.838 21.3238 105.838 21.3238M103.634 21.3482L97.024 21.4215M103.634 21.3482L105.838 21.3238M111.189 13.1045C111.189 13.8925 111.189 14.8733 111.189 15.7286C111.189 16.8332 110.294 17.7285 109.189 17.7285H76.86C75.8073 17.7285 74.9342 16.9125 74.9131 15.8599C74.8953 14.9727 74.9023 13.9289 74.9893 13.1045C75.2153 10.9633 75.3216 9.65416 76.2484 7.76911C79.3962 1.36661 88.8396 1.7223 95.45 1.72231C102.06 1.72232 106.467 3.1451 109.3 7.05773C110.738 9.04289 111.189 10.9704 111.189 13.1045Z" stroke="#D77E2A" stroke-linecap="round" stroke-linejoin="round"/>
<path d="M139.976 22.6683L139.976 22.6682C138.574 21.2661 136.797 20.4609 135.252 20.4609C134.247 20.4609 133.42 20.7899 132.829 21.3812C132.829 21.3812 132.829 21.3812 132.829 21.3812M139.976 22.6683L131.502 24.7989C131.222 23.2751 131.567 21.9358 132.475 21.0277L132.829 21.3812M139.976 22.6683C141.108 23.7999 141.854 25.1616 142.098 26.4885C142.356 27.8867 142.031 29.046 141.262 29.8172M139.976 22.6683L141.262 29.8172M132.829 21.3812C132.062 22.1481 131.736 23.3082 131.994 24.7084L132.829 21.3812ZM132.854 21.5631L133.322 22.0303L134.912 23.621C134.934 23.6428 134.962 23.6534 134.991 23.6534C135.02 23.6534 135.047 23.6427 135.069 23.621C135.112 23.5779 135.112 23.5079 135.069 23.4649L135.069 23.4648L133.478 21.8737L133.01 21.406L133.588 21.0836C134.073 20.8129 134.64 20.682 135.252 20.682C136.807 20.682 138.503 21.5077 139.82 22.8246C140.897 23.9019 141.639 25.212 141.881 26.5285C142.053 27.4642 141.958 28.3461 141.561 29.0571L141.238 29.6339L140.771 29.1666L136.796 25.1916C136.752 25.1484 136.682 25.1484 136.639 25.1916C136.596 25.2348 136.596 25.3047 136.639 25.3477L136.639 25.3478L140.615 29.3232L141.082 29.7909L140.505 30.1133C140.02 30.384 139.452 30.5149 138.841 30.5149C137.285 30.5149 135.589 29.6892 134.272 28.3724C134.272 28.3723 134.272 28.3723 134.272 28.3723M132.854 21.5631L132.703 24.5779C132.924 25.7779 133.607 26.9998 134.626 28.0188L134.272 28.3723M132.854 21.5631L132.532 22.1398C132.134 22.8508 132.039 23.7328 132.211 24.6684L132.854 21.5631ZM134.272 28.3723C133.195 27.295 132.454 25.9851 132.211 24.6684L134.272 28.3723ZM141.262 29.8172C140.67 30.4074 139.845 30.7359 138.84 30.7359C137.295 30.7359 135.518 29.9308 134.116 28.5286C132.984 27.397 132.238 26.0353 131.994 24.7084L141.262 29.8172Z" fill="#D77E2A" stroke="#D77E2A"/>
<path d="M126.044 18.5312H148.57M126.759 33.0121H147.318" stroke="#D77E2A"/>
<path d="M149.106 11.7375L146.782 38.375H127.117L125.687 11.7375M149.106 11.7375H152.145V9.05584L146.782 7.80441L145.352 3.15625H128.726L127.653 7.80441M149.106 11.7375H125.687M127.653 7.80441L122.469 9.05584V11.7375H125.687M127.653 7.80441H142.67" stroke="#D77E2A"/>
<path d="M159.844 35.7005L159.844 6.74707C159.844 5.09021 161.187 3.74707 162.844 3.74707H184.191C185.465 3.74707 186.498 4.77982 186.498 6.05379V6.05379C186.498 7.88992 188.588 8.92329 190.403 8.64803C190.526 8.62942 190.646 8.61651 190.764 8.6102C192.836 8.49922 194.164 9.04403 195.79 10.3332C197.485 11.6777 198.087 13.6356 198.661 15.0714C199.236 16.5072 199.929 20.9871 198.661 24.4042C197.925 26.388 197.432 27.6649 195.79 28.9988C194.165 30.3186 192.854 30.9842 190.764 30.8654V30.8654C188.802 30.7539 186.498 31.7393 186.498 33.7044V35.7005M159.844 35.7005V35.7005C160.084 37.057 161.257 38.0492 162.635 38.0597L183.487 38.2193C184.82 38.2295 186 37.3585 186.384 36.0814L186.498 35.7005M159.844 35.7005H178.89M186.498 35.7005H184.976M181.172 35.7005H182.947M190.764 13.3484C189.79 13.2535 188.611 13.7734 187.74 14.2663C186.927 14.7261 186.498 15.619 186.498 16.5529V22.9227C186.498 23.8565 186.927 24.7495 187.74 25.2093C188.611 25.7022 189.79 26.222 190.764 26.1272C192.212 25.9862 193.127 25.5147 194.067 24.4042C195.79 22.3679 195.79 17.2383 194.067 15.0714C193.161 13.9328 192.212 13.4894 190.764 13.3484Z" stroke="#D77E2A" stroke-linecap="round" stroke-linejoin="round"/>
<path d="M177.368 1.71875V16.1739M177.368 16.1739L174.6 18.5735C173.942 19.1433 173.564 19.9705 173.564 20.8406V23.3178C173.564 24.9747 174.908 26.3178 176.564 26.3178H178.426C180.083 26.3178 181.426 24.9747 181.426 23.3178V20.8986C181.426 19.9952 181.019 19.1399 180.318 18.5702L177.368 16.1739ZM177.368 19.9779V24.289" stroke="#D77E2A" stroke-linecap="round" stroke-linejoin="round"/>
<path d="M229.576 20.8703C229.576 20.8703 230.58 20.6856 230.922 19.9241C231.393 18.8775 229.576 17.7162 229.576 17.7162M229.576 20.8703H208.873M229.576 20.8703L228.825 26.0744M229.576 17.7162C229.576 17.7162 228.982 12.9962 227.051 10.7774C225.005 8.42704 222.935 7.15032 219.737 7.15032C215.953 7.15032 213.88 8.21013 211.566 10.7774C209.58 12.9804 208.873 17.7162 208.873 17.7162M229.576 17.7162H208.873M208.873 17.7162C208.873 17.7162 206.87 18.7461 207.358 19.9241C207.742 20.8515 208.873 20.8703 208.873 20.8703M208.873 20.8703L209.673 26.0744M219.308 13.1429V3.86104C219.308 3.16178 219.674 2.5133 220.272 2.15079L222.17 1M209.673 26.0744H228.825M209.673 26.0744L210.789 33.3286M228.825 26.0744L227.779 33.3286M210.789 33.3286L211.305 36.6791C211.455 37.6548 212.295 38.375 213.282 38.375H225.319C226.313 38.375 227.156 37.6446 227.298 36.6605L227.779 33.3286M210.789 33.3286H227.779M214.259 29.5438H216.615M219.813 29.5438H225.199" stroke="#D77E2A" stroke-linecap="round" stroke-linejoin="round"/>
</svg>
