<svg width="60" height="60" viewBox="0 0 60 60" fill="none" xmlns="http://www.w3.org/2000/svg">
<path d="M12 1H13H48C50.9174 1 53.7153 2.15893 55.7782 4.22183C57.8411 6.28473 59 9.08262 59 12V48C59 50.9174 57.8411 53.7153 55.7782 55.7782C53.7153 57.8411 50.9174 59 48 59H12C9.08262 59 6.28473 57.8411 4.22183 55.7782C2.15893 53.7153 1 50.9174 1 48V12C1 9.08262 2.15893 6.28473 4.22183 4.22183C6.28473 2.15893 9.08262 1 12 1ZM12 5C10.1435 5 8.36301 5.7375 7.05025 7.05025C5.7375 8.36301 5 10.1435 5 12V48C5 49.8565 5.7375 51.637 7.05025 52.9497C8.36301 54.2625 10.1435 55 12 55H48C49.8565 55 51.637 54.2625 52.9497 52.9497C54.2625 51.637 55 49.8565 55 48V12C55 10.1435 54.2625 8.36301 52.9497 7.05025C51.637 5.7375 49.8565 5 48 5H12Z" fill="#D77E2A" stroke="black" stroke-width="2"/>
<path d="M26.2931 35.4651L28.0002 37.1722V34.758V18C28.0002 17.4696 28.211 16.9609 28.586 16.5858C28.9611 16.2107 29.4698 16 30.0002 16C30.5307 16 31.0394 16.2107 31.4145 16.5858C31.7895 16.9609 32.0002 17.4696 32.0002 18V34.758V37.1722L33.7073 35.4651L41.3086 27.8638C41.6852 27.503 42.188 27.3034 42.7097 27.3079C43.2341 27.3125 43.7358 27.5228 44.1066 27.8937C44.4774 28.2645 44.6877 28.7661 44.6923 29.2905C44.6968 29.8123 44.4973 30.3151 44.1364 30.6917L31.4141 43.4139L31.4121 43.4159C31.2271 43.602 31.0071 43.7497 30.7648 43.8505C30.5225 43.9512 30.2627 44.0031 30.0002 44.0031C29.7378 44.0031 29.478 43.9512 29.2357 43.8505C28.9934 43.7497 28.7734 43.602 28.5884 43.4159L28.5863 43.4139L15.8573 30.6849L15.8512 30.6787L15.845 30.6727C15.6539 30.4882 15.5016 30.2675 15.3967 30.0235C15.2919 29.7795 15.2368 29.5171 15.2345 29.2515C15.2321 28.986 15.2827 28.7226 15.3833 28.4768C15.4839 28.231 15.6324 28.0077 15.8202 27.8199C16.0079 27.6321 16.2312 27.4836 16.477 27.3831C16.7228 27.2825 16.9862 27.2319 17.2518 27.2342C17.5173 27.2365 17.7798 27.2917 18.0238 27.3965C18.2678 27.5013 18.4885 27.6537 18.673 27.8447L18.679 27.851L18.6851 27.8571L26.2931 35.4651Z" fill="#D77E2A" stroke="black" stroke-width="2"/>
</svg>
