<svg width="47" height="51" viewBox="0 0 47 51" fill="none" xmlns="http://www.w3.org/2000/svg">
<path d="M17.1779 46.1431V46.1431C17.5343 46.8263 17.3575 47.6662 16.7558 48.1476L15.0227 49.534C14.0614 50.3031 12.6402 50.0294 12.0332 48.9583L9.27221 44.0859C8.62028 42.9355 9.24433 41.4803 10.5272 41.1596L12.5813 40.6461C13.4782 40.4219 14.4119 40.8416 14.8395 41.6612L14.9106 41.7975M17.1779 46.1431L20.7227 43.14C20.8133 43.0632 20.9106 42.9946 21.0134 42.9351L26.4603 39.7816C26.6109 39.6945 26.7494 39.588 26.8724 39.465L30.4454 35.8921C30.5974 35.7401 30.7239 35.5646 30.82 35.3723L32.5286 31.955C32.8871 31.2382 32.7466 30.3723 32.1798 29.8056V29.8056C31.6414 29.2672 30.8294 29.1108 30.1296 29.4107L29.8145 29.5458C29.3797 29.7321 29.025 30.0665 28.8135 30.4896L28.2123 31.6921C28.0187 32.0791 27.7049 32.393 27.3178 32.5865L23.816 34.3374C23.6855 34.4027 23.5482 34.4534 23.4066 34.4888L21.1056 35.0641C20.3876 35.2436 19.6291 35.0119 19.134 34.4617L17.2893 32.4121C17.2152 32.3297 17.148 32.2414 17.0885 32.1479L15.6615 29.9054C15.2908 29.3228 14.5711 29.0673 13.916 29.2857V29.2857C13.0472 29.5753 12.6364 30.5672 13.0459 31.3863L13.106 31.5065C13.1619 31.6184 13.2306 31.7234 13.3107 31.8194L14.4823 33.2254C14.642 33.417 14.7644 33.6368 14.8433 33.8733L15.5708 36.0559C15.6195 36.2022 15.6512 36.3536 15.6652 36.5072L15.9006 39.0971C15.9335 39.4591 15.8672 39.8231 15.7087 40.1502L14.9106 41.7975M17.1779 46.1431L14.9106 41.7975M4.29448 24.6196H42.2299C42.6922 24.6196 43.1414 24.778 43.4842 25.0881C43.8944 25.4593 44.4446 25.9916 44.7853 26.4601V26.4601C45.5676 27.5358 44.5924 28.9141 43.2623 28.9141H2.51053C1.2255 28.9141 0.203029 27.6686 0.857094 26.5625C0.877858 26.5274 0.898912 26.4932 0.920246 26.4601C1.24233 25.9607 1.81686 25.4162 2.23858 25.05C2.5702 24.7621 2.9987 24.6196 3.43789 24.6196H4.29448ZM4.29448 24.6196C4.29448 24.6196 4.38896 21.3741 4.90798 19.4049C5.50503 17.1396 7.27859 14.4579 7.61374 13.9637C7.65037 13.9097 7.68937 13.8592 7.73216 13.8099C8.14699 13.3323 10.5193 10.6466 12.5767 9.28221C14.5859 7.94986 16.1501 7.37463 18.4049 6.52147C19.2907 6.18632 20.1026 6.01793 21.0123 5.7546M41.7178 24.6196C41.7178 22.5832 41.5662 21.3883 41.1043 19.4049C40.5451 17.0037 38.3457 13.8865 38.3436 13.8834C38.3435 13.8833 38.3436 13.8835 38.3436 13.8834C38.3414 13.8804 36.1264 10.7437 34.0491 9.28221C32.0263 7.85904 28.3556 6.56859 28.2245 6.52273C28.2203 6.52128 28.2193 6.52095 28.2151 6.51953C28.1142 6.48524 26.7013 6.00635 25.7669 5.7546M21.0123 5.7546C22.0859 4.98773 22.0859 4.98773 23.3129 4.98773C24.5399 4.98773 24.7582 5.05596 25.7669 5.7546M21.0123 5.7546C20.9524 4.73636 20.5163 4.10798 20.8589 3.14724C21.2866 1.94781 22.0395 1 23.3129 1C24.5863 1 25.2999 1.96255 25.7669 3.14724C26.1403 4.09453 25.7669 4.73636 25.7669 5.7546" stroke="#D77E2A" stroke-linecap="round" stroke-linejoin="round"/>
<path d="M13.4967 45.785L14.7237 47.6255M10.4292 19.7114C10.4292 19.7114 11.7955 15.9761 13.4967 14.1899C14.9861 12.6261 16.0951 11.9302 18.0979 11.1224C20.4546 10.1719 24.5396 10.2021 24.5396 10.2021" stroke="#D77E2A" stroke-linecap="round" stroke-linejoin="round"/>
</svg>
