<svg width="33" height="35" viewBox="0 0 33 35" fill="none" xmlns="http://www.w3.org/2000/svg">
<path d="M29.2786 3.40813C28.4154 2.60842 24.9222 0.0589383 17.1338 0.0247629C17.1338 0.0247629 7.95221 -0.528879 3.48034 3.59951C0.992945 6.10115 0.11624 9.77159 0.0210941 14.3169C-0.0740522 18.8622 -0.189587 27.3787 7.9726 29.689H7.9794L7.9726 33.2159C7.9726 33.2159 7.91823 34.6444 8.8561 34.9315C9.98426 35.2869 10.6503 34.2002 11.7309 33.0314C12.3221 32.3889 13.1377 31.4456 13.7561 30.7279C19.3426 31.1996 23.631 30.1196 24.1203 29.9624C25.2484 29.5933 31.63 28.7731 32.663 20.2566C33.7368 11.4667 32.1465 5.9166 29.2786 3.40813ZM30.2232 19.6141C29.3465 26.7226 24.1746 27.1737 23.2232 27.4813C22.8154 27.6111 19.0435 28.5544 14.3066 28.2468C14.3066 28.2468 10.7726 32.5324 9.67164 33.6465C9.31144 34.0088 8.91727 33.9746 8.92406 33.2569C8.92406 32.7853 8.95125 27.3993 8.95125 27.3993C8.94445 27.3993 8.94445 27.3993 8.95125 27.3993C2.03276 25.4718 2.44053 18.2197 2.51528 14.4263C2.59004 10.6328 3.30364 7.52284 5.41045 5.43131C9.19591 1.9796 16.9911 2.49223 16.9911 2.49223C23.5766 2.51957 26.73 4.51541 27.464 5.18525C29.8902 7.27678 31.1271 12.2801 30.2232 19.6141ZM20.7766 14.0914C20.8038 14.6792 19.927 14.7202 19.8999 14.1324C19.8251 12.6286 19.1251 11.8973 17.6843 11.8153C17.0998 11.7811 17.1542 10.8994 17.7319 10.9335C19.628 11.0361 20.6814 12.1297 20.7766 14.0914ZM22.1562 14.8637C22.2241 11.9656 20.4232 9.6964 17.0047 9.4435C16.427 9.40249 16.4882 8.52077 17.0659 8.56178C21.0076 8.84885 23.1076 11.576 23.0329 14.8842C23.0261 15.472 22.1426 15.4447 22.1562 14.8637ZM25.3504 15.7796C25.3572 16.3674 24.4737 16.3743 24.4737 15.7865C24.4329 10.2159 20.7426 7.18109 16.2639 7.14691C15.6862 7.14008 15.6862 6.26519 16.2639 6.26519C21.2727 6.29936 25.3028 9.77842 25.3504 15.7796ZM24.5824 22.4848V22.4985C23.8484 23.7972 22.4756 25.2325 21.062 24.7746L21.0484 24.7541C19.6144 24.3508 16.2367 22.601 14.1027 20.8923C13.0018 20.0174 11.9959 18.9853 11.2212 17.9942C10.5212 17.1125 9.81436 16.0667 9.12795 14.809C7.68037 12.1775 7.36095 11.0019 7.36095 11.0019C6.9056 9.5802 8.326 8.19952 9.62407 7.46133H9.63766C10.2629 7.13324 10.861 7.24261 11.2619 7.7279C11.2619 7.7279 12.1047 8.73949 12.4649 9.23845C12.8047 9.70323 13.26 10.4483 13.4979 10.8652C13.9124 11.6102 13.6542 12.3689 13.2464 12.6833L12.4309 13.3395C12.0163 13.6744 12.0707 14.2964 12.0707 14.2964C12.0707 14.2964 13.2804 18.8964 17.7998 20.0584C17.7998 20.0584 18.4183 20.1131 18.7513 19.6961L19.4037 18.8759C19.7164 18.4658 20.4707 18.2061 21.2115 18.623C22.2106 19.1903 23.4814 20.072 24.3242 20.8718C24.7999 21.2614 24.9086 21.856 24.5824 22.4848Z" fill="#D77E2A"/>
</svg>
